<svg id="Layer_3" enable-background="new 0 0 64 64" height="512" viewBox="0 0 64 64" width="512" xmlns="http://www.w3.org/2000/svg"><g><g><path d="m62 50h-36v-48h26v10h10z" fill="#c7e2fc"/></g><g><path d="m16 48-14-8v14l14 8z" fill="#976947"/></g><g><path d="m16 48 14-8v14l-14 8z" fill="#674025"/></g><g><path d="m24.875 42.929 5.125-2.929-14-8-14 8 14 8 5-2.857" fill="#c18e59"/></g><g><path d="m10.842 34.909 14.158 8.091v5l-4 2v-5l-14-8" fill="#976947"/></g><g><path d="m52 2h-17.995c-1.926 3.933-3.005 8.343-3.005 13 0 16.569 13.655 30 30.5 30 .168 0 .333-.01.5-.012v-32.988h-10z" fill="#ebf7fe"/></g><g><path d="m52 32 3-8 3 8v27c0 1.657-1.343 3-3 3-1.657 0-3-1.343-3-3z" fill="#efbe9a"/></g><g><path d="m58 32-3 2-3-2v24h6z" fill="#e47c6e"/></g><g><path d="m62 12h-10v-10" fill="#8892a0"/></g><g><path d="m16 49c-.171 0-.343-.044-.496-.132l-14-8c-.312-.178-.504-.509-.504-.868s.192-.69.504-.868l14-8c.307-.176.686-.176.992 0l14 8c.312.178.504.509.504.868s-.192.69-.504.868l-5.125 2.929-.992-1.736 3.605-2.061-11.984-6.848-11.984 6.848 11.984 6.848 4.504-2.573.992 1.736-5 2.857c-.153.088-.325.132-.496.132z"/></g><g><path d="m21 51c-.183 0-.365-.05-.525-.149-.295-.183-.475-.504-.475-.851v-4.42l-13.371-7.641.992-1.736 13.875 7.929c.312.178.504.509.504.868v3.382l2-1v-3.802l-13.496-7.712.992-1.736 14 8c.312.178.504.509.504.868v5c0 .379-.214.725-.553.895l-4 2c-.141.07-.294.105-.447.105z"/></g><g><path d="m16 63c-.171 0-.343-.044-.496-.132l-14-8c-.312-.178-.504-.509-.504-.868v-14h2v13.42l13 7.428 13-7.428v-13.42h2v14c0 .359-.192.69-.504.868l-14 8c-.153.088-.325.132-.496.132z"/></g><g><path d="m15 48h2v14h-2z"/></g><g><path d="m62 51h-4v-2h3v-36h-9c-.553 0-1-.448-1-1v-9h-24v35h-2v-36c0-.552.447-1 1-1h26c.553 0 1 .448 1 1v9h9c.553 0 1 .448 1 1v38c0 .552-.447 1-1 1z"/></g><g><path d="m30 49h22v2h-22z"/></g><g><path d="m56-.071h2v14.142h-2z" transform="matrix(.707 -.707 .707 .707 11.745 42.355)"/></g><g><path d="m55 63c-2.206 0-4-1.794-4-4v-27c0-.12.021-.239.063-.351l3-8c.147-.39.52-.649.937-.649s.79.259.937.649l3 8c.042.112.063.231.063.351v27c0 2.206-1.794 4-4 4zm-2-30.819v26.819c0 1.103.897 2 2 2s2-.897 2-2v-26.819l-2-5.333z"/></g><g><path d="m55 35c-.193 0-.387-.056-.555-.168l-3-2 1.109-1.664 2.446 1.63 2.445-1.63 1.109 1.664-3 2c-.167.112-.361.168-.554.168z"/></g><g><path d="m52 55h6v2h-6z"/></g><g><path d="m54 34h2v22h-2z"/></g><g><path d="m29 15h2v2h-2z"/></g><g><path d="m33 15h26v2h-26z"/></g><g><path d="m57 19h2v2h-2z"/></g><g><path d="m29 19h26v2h-26z"/></g><g><path d="m29 23h20v2h-20z"/></g><g><path d="m29 27h20v2h-20z"/></g></g></svg>