<svg height="496pt" viewBox="0 0 496 496" width="496pt" xmlns="http://www.w3.org/2000/svg"><path d="m32 88h112v104h-112zm0 0" fill="#f0bc5e"/><path d="m80 155.3125-21.65625-21.65625 11.3125-11.3125 10.34375 10.34375 50.34375-50.34375 11.3125 11.3125zm0 0"/><path d="m473.3125 48.105469-87.402344-17.480469-36.175781 160.765625-173.734375-34.75v-156.640625h-123.3125l-52.6875 52.6875v171.3125h88.160156l-22.703125 104.457031c-9.953125 1.824219-18.128906 9.269531-20.664062 19.382813l-4.058594 16.222656c-.488281 1.960938-.734375 3.976562-.734375 6 0 11.9375 8.511719 22.167969 20.246094 24.34375l202.296875 37.464844 2.914062-15.734375-202.296875-37.464844c-4.152344-.769531-7.160156-4.390625-7.160156-8.609375 0-.71875.089844-1.429688.265625-2.125l4.054687-16.21875c1.304688-5.191406 6.695313-8.558594 11.878907-7.519531l209.496093 41.898437 3.144532-15.691406-203.289063-40.652344 22.984375-105.753906h71.464844v-51.039062l21.0625 4.214843-15.132812 52.976563 95.734374 19.152344 15.136719-52.984376 53.421875 10.6875-34.03125 151.230469 15.609375 3.515625 61.328125-272.578125 17.582032 3.519531-62.519532 273.519532 15.601563 3.5625 12.597656-55.144532 20.066406 4.007813-16.265625 71.574219 15.601563 3.546875 40.640625-178.808594-25.625-50.847656 15.605468-68.28125 38.050782 7.609375c1.824218.382812 3.6875.566406 5.535156.566406h1.777344c15.558594 0 28.222656-12.664062 28.222656-28.222656 0-13.410156-9.542969-25.042969-22.6875-27.671875zm-425.3125-20.792969v20.6875h-20.6875zm112 180.6875h-144v-144h48v-48h96zm66.335938 14.703125-24.265626-4.855469 10.730469-37.527344 24.261719 4.855469zm40 8-24.265626-4.855469 10.730469-37.527344 24.261719 4.855469zm129.679687 72.34375-20.039063-4.007813 13.222657-57.839843 19.96875 3.992187zm19.542969-86.015625-2.855469 12.554688-19.949219-3.992188 8.460938-37.019531zm52.21875-129.03125h-1.777344c-.808594 0-1.609375-.078125-2.398438-.238281l-70.960937-14.195313 5.4375-24.191406 72.082031 14.417969c5.703125 1.144531 9.839844 6.183593 9.839844 11.984375 0 6.734375-5.488281 12.222656-12.222656 12.222656zm0 0"/><path d="m328 352c-39.703125 0-72 32.296875-72 72s32.296875 72 72 72 72-32.296875 72-72-32.296875-72-72-72zm0 0" fill="#f0bc5e"/><path d="m328 464c-22.054688 0-40-17.945312-40-40s17.945312-40 40-40 40 17.945312 40 40-17.945312 40-40 40zm0-64c-13.230469 0-24 10.769531-24 24s10.769531 24 24 24 24-10.769531 24-24-10.769531-24-24-24zm0 0"/></svg>