<?xml version="1.0" encoding="UTF-8" standalone="no"?>
<svg
   xmlns:dc="http://purl.org/dc/elements/1.1/"
   xmlns:cc="http://creativecommons.org/ns#"
   xmlns:rdf="http://www.w3.org/1999/02/22-rdf-syntax-ns#"
   xmlns:svg="http://www.w3.org/2000/svg"
   xmlns="http://www.w3.org/2000/svg"
   xmlns:sodipodi="http://sodipodi.sourceforge.net/DTD/sodipodi-0.dtd"
   xmlns:inkscape="http://www.inkscape.org/namespaces/inkscape"
   id="Layer_3"
   enable-background="new 0 0 64 64"
   height="512"
   viewBox="0 0 64 64"
   width="512"
   version="1.1"
   sodipodi:docname="inventory.svg">
  <metadata
     id="metadata398">
    <rdf:RDF>
      <cc:Work
         rdf:about="">
        <dc:format>image/svg+xml</dc:format>
        <dc:type
           rdf:resource="http://purl.org/dc/dcmitype/StillImage" />
      </cc:Work>
    </rdf:RDF>
  </metadata>
  <defs
     id="defs396" />
  <sodipodi:namedview
     pagecolor="#ffffff"
     bordercolor="#666666"
     inkscape:document-rotation="0"
     borderopacity="1"
     objecttolerance="10"
     gridtolerance="10"
     guidetolerance="10"
     inkscape:pageopacity="0"
     inkscape:pageshadow="2"
     inkscape:window-width="640"
     inkscape:window-height="480"
     id="namedview394"
     showgrid="false" />
  <g
     id="g391"
     transform="matrix(0.68391977,0,0,0.68391977,10.548288,10.405939)">
    <g
       id="g289">
      <path
         id="path287"
         fill="#c7e2fc"
         d="M 62,50 H 26 V 2 h 26 v 10 h 10 z"
         inkscape:connector-curvature="0" />
    </g>
    <g
       id="g293">
      <path
         id="path291"
         fill="#976947"
         d="M 16,48 2,40 v 14 l 14,8 z"
         inkscape:connector-curvature="0" />
    </g>
    <g
       id="g297">
      <path
         id="path295"
         fill="#674025"
         d="M 16,48 30,40 V 54 L 16,62 Z"
         inkscape:connector-curvature="0" />
    </g>
    <g
       id="g301">
      <path
         id="path299"
         fill="#c18e59"
         d="M 24.875,42.929 30,40 16,32 2,40 l 14,8 5,-2.857"
         inkscape:connector-curvature="0" />
    </g>
    <g
       id="g305">
      <path
         id="path303"
         fill="#976947"
         d="M 10.842,34.909 25,43 v 5 l -4,2 V 45 L 7,37"
         inkscape:connector-curvature="0" />
    </g>
    <g
       id="g309">
      <path
         id="path307"
         fill="#ebf7fe"
         d="M 52,2 H 34.005 C 32.079,5.933 31,10.343 31,15 c 0,16.569 13.655,30 30.5,30 0.168,0 0.333,-0.01 0.5,-0.012 V 12 H 52 Z"
         inkscape:connector-curvature="0" />
    </g>
    <g
       id="g313">
      <path
         id="path311"
         fill="#efbe9a"
         d="m 52,32 3,-8 3,8 v 27 c 0,1.657 -1.343,3 -3,3 -1.657,0 -3,-1.343 -3,-3 z"
         inkscape:connector-curvature="0" />
    </g>
    <g
       id="g317">
      <path
         id="path315"
         fill="#e47c6e"
         d="m 58,32 -3,2 -3,-2 v 24 h 6 z"
         inkscape:connector-curvature="0" />
    </g>
    <g
       id="g321">
      <path
         id="path319"
         fill="#8892a0"
         d="M 62,12 H 52 V 2"
         inkscape:connector-curvature="0" />
    </g>
    <g
       id="g325">
      <path
         id="path323"
         d="m 16,49 c -0.171,0 -0.343,-0.044 -0.496,-0.132 l -14,-8 C 1.192,40.69 1,40.359 1,40 1,39.641 1.192,39.31 1.504,39.132 l 14,-8 c 0.307,-0.176 0.686,-0.176 0.992,0 l 14,8 C 30.808,39.31 31,39.641 31,40 c 0,0.359 -0.192,0.69 -0.504,0.868 L 25.371,43.797 24.379,42.061 27.984,40 16,33.152 4.016,40 16,46.848 l 4.504,-2.573 0.992,1.736 -5,2.857 C 16.343,48.956 16.171,49 16,49 Z"
         inkscape:connector-curvature="0" />
    </g>
    <g
       id="g329">
      <path
         id="path327"
         d="M 21,51 C 20.817,51 20.635,50.95 20.475,50.851 20.18,50.668 20,50.347 20,50 V 45.58 L 6.629,37.939 7.621,36.203 21.496,44.132 C 21.808,44.31 22,44.641 22,45 v 3.382 l 2,-1 V 43.58 l -13.496,-7.712 0.992,-1.736 14,8 C 25.808,42.31 26,42.641 26,43 v 5 c 0,0.379 -0.214,0.725 -0.553,0.895 l -4,2 C 21.306,50.965 21.153,51 21,51 Z"
         inkscape:connector-curvature="0" />
    </g>
    <g
       id="g333">
      <path
         id="path331"
         d="m 16,63 c -0.171,0 -0.343,-0.044 -0.496,-0.132 l -14,-8 C 1.192,54.69 1,54.359 1,54 V 40 H 3 V 53.42 L 16,60.848 29,53.42 V 40 h 2 v 14 c 0,0.359 -0.192,0.69 -0.504,0.868 l -14,8 C 16.343,62.956 16.171,63 16,63 Z"
         inkscape:connector-curvature="0" />
    </g>
    <g
       id="g337">
      <path
         id="path335"
         d="m 15,48 h 2 v 14 h -2 z"
         inkscape:connector-curvature="0" />
    </g>
    <g
       id="g341">
      <path
         id="path339"
         d="m 62,51 h -4 v -2 h 3 V 13 h -9 c -0.553,0 -1,-0.448 -1,-1 V 3 H 27 V 38 H 25 V 2 c 0,-0.552 0.447,-1 1,-1 h 26 c 0.553,0 1,0.448 1,1 v 9 h 9 c 0.553,0 1,0.448 1,1 v 38 c 0,0.552 -0.447,1 -1,1 z"
         inkscape:connector-curvature="0" />
    </g>
    <g
       id="g345">
      <path
         id="path343"
         d="m 30,49 h 22 v 2 H 30 Z"
         inkscape:connector-curvature="0" />
    </g>
    <g
       id="g349">
      <path
         id="path347"
         transform="matrix(0.707,-0.707,0.707,0.707,11.745,42.355)"
         d="m 56,-0.071 h 2 v 14.142 h -2 z"
         inkscape:connector-curvature="0" />
    </g>
    <g
       id="g353">
      <path
         id="path351"
         d="m 55,63 c -2.206,0 -4,-1.794 -4,-4 V 32 c 0,-0.12 0.021,-0.239 0.063,-0.351 l 3,-8 C 54.21,23.259 54.583,23 55,23 c 0.417,0 0.79,0.259 0.937,0.649 l 3,8 C 58.979,31.761 59,31.88 59,32 v 27 c 0,2.206 -1.794,4 -4,4 z M 53,32.181 V 59 c 0,1.103 0.897,2 2,2 1.103,0 2,-0.897 2,-2 V 32.181 l -2,-5.333 z"
         inkscape:connector-curvature="0" />
    </g>
    <g
       id="g357">
      <path
         id="path355"
         d="m 55,35 c -0.193,0 -0.387,-0.056 -0.555,-0.168 l -3,-2 1.109,-1.664 2.446,1.63 2.445,-1.63 1.109,1.664 -3,2 C 55.387,34.944 55.193,35 55,35 Z"
         inkscape:connector-curvature="0" />
    </g>
    <g
       id="g361">
      <path
         id="path359"
         d="m 52,55 h 6 v 2 h -6 z"
         inkscape:connector-curvature="0" />
    </g>
    <g
       id="g365">
      <path
         id="path363"
         d="m 54,34 h 2 v 22 h -2 z"
         inkscape:connector-curvature="0" />
    </g>
    <g
       id="g369">
      <path
         id="path367"
         d="m 29,15 h 2 v 2 h -2 z"
         inkscape:connector-curvature="0" />
    </g>
    <g
       id="g373">
      <path
         id="path371"
         d="m 33,15 h 26 v 2 H 33 Z"
         inkscape:connector-curvature="0" />
    </g>
    <g
       id="g377">
      <path
         id="path375"
         d="m 57,19 h 2 v 2 h -2 z"
         inkscape:connector-curvature="0" />
    </g>
    <g
       id="g381">
      <path
         id="path379"
         d="m 29,19 h 26 v 2 H 29 Z"
         inkscape:connector-curvature="0" />
    </g>
    <g
       id="g385">
      <path
         id="path383"
         d="m 29,23 h 20 v 2 H 29 Z"
         inkscape:connector-curvature="0" />
    </g>
    <g
       id="g389">
      <path
         id="path387"
         d="m 29,27 h 20 v 2 H 29 Z"
         inkscape:connector-curvature="0" />
    </g>
  </g>
  <g
     inkscape:groupmode="layer"
     id="layer1"
     inkscape:label="background">
    <circle
       r="31.820286"
       cy="28.55427"
       cx="-41.096973"
       id="circle575"
       style="fill:#000000;stroke-width:0.130601" />
  </g>
  <g
     inkscape:groupmode="layer"
     id="layer2"
     inkscape:label="background 1">
    <circle
       style="fill:#3366cc;stroke-width:0.125"
       id="path463"
       cx="-41.217083"
       cy="28.404806"
       r="30.455517" />
  </g>
</svg>
